<svg width="54" height="50" viewBox="0 0 54 50" fill="none" xmlns="http://www.w3.org/2000/svg">
<path d="M10.8 50C10.035 50 9.3942 49.7333 8.8776 49.2C8.361 48.6666 8.1018 48.0074 8.1 47.2222C8.0982 46.437 8.3574 45.7777 8.8776 45.2444C9.3978 44.7111 10.0386 44.4444 10.8 44.4444H43.2C43.965 44.4444 44.6067 44.7111 45.1251 45.2444C45.6435 45.7777 45.9018 46.437 45.9 47.2222C45.8982 48.0074 45.639 48.6676 45.1224 49.2027C44.6058 49.7379 43.965 50.0037 43.2 50H10.8ZM12.69 40.2777C11.385 40.2777 10.2267 39.8379 9.2151 38.9583C8.2035 38.0787 7.5843 36.9676 7.3575 35.625L4.6575 17.9861C4.5675 17.9861 4.4667 17.9981 4.3551 18.0222C4.2435 18.0463 4.1418 18.0574 4.05 18.0555C2.925 18.0555 1.9692 17.6509 1.18261 16.8417C0.396006 16.0324 0.00180614 15.0481 6.13636e-06 13.8889C-0.00179386 12.7296 0.392406 11.7463 1.18261 10.9389C1.9728 10.1315 2.9286 9.72592 4.05 9.72222C5.1714 9.71852 6.1281 10.1241 6.9201 10.9389C7.7121 11.7537 8.1054 12.737 8.1 13.8889C8.1 14.213 8.0658 14.5139 7.9974 14.7917C7.929 15.0694 7.8507 15.3241 7.7625 15.5555L16.2 19.4444L24.6375 7.56944C24.1425 7.19907 23.7375 6.71296 23.4225 6.11111C23.1075 5.50926 22.95 4.86111 22.95 4.16667C22.95 3.00926 23.3442 2.025 24.1326 1.21389C24.921 0.402784 25.8768 -0.00184552 27 6.32751e-06C28.1232 0.00185818 29.0799 0.407413 29.8701 1.21667C30.6603 2.02593 31.0536 3.00926 31.05 4.16667C31.05 4.86111 30.8925 5.50926 30.5775 6.11111C30.2625 6.71296 29.8575 7.19907 29.3625 7.56944L37.8 19.4444L46.2375 15.5555C46.1475 15.3241 46.0683 15.0694 45.9999 14.7917C45.9315 14.5139 45.8982 14.213 45.9 13.8889C45.9 12.7315 46.2942 11.7472 47.0826 10.9361C47.871 10.125 48.8268 9.72037 49.95 9.72222C51.0732 9.72407 52.0299 10.1296 52.8201 10.9389C53.6103 11.7481 54.0036 12.7315 54 13.8889C53.9964 15.0463 53.6031 16.0305 52.8201 16.8417C52.0371 17.6528 51.0804 18.0574 49.95 18.0555C49.86 18.0555 49.7592 18.0444 49.6476 18.0222C49.536 18 49.4343 17.988 49.3425 17.9861L46.6425 35.625C46.4175 36.9676 45.7992 38.0787 44.7876 38.9583C43.776 39.8379 42.6168 40.2777 41.31 40.2777H12.69Z" fill="url(#paint0_linear_111_1276)"/>
<defs>
<linearGradient id="paint0_linear_111_1276" x1="27" y1="0" x2="27" y2="50" gradientUnits="userSpaceOnUse">
<stop stop-color="#0095FF"/>
<stop offset="1" stop-color="#004372"/>
</linearGradient>
</defs>
</svg>
