<svg width="47" height="50" viewBox="0 0 47 50" fill="none" xmlns="http://www.w3.org/2000/svg">
<path d="M47 50V43.3333C47 43.3333 47 30 23.5 30C0 30 0 43.3333 0 43.3333V50H47Z" fill="url(#paint0_linear_111_1252)"/>
<path d="M33.2698 5.18502C34.5609 7.10359 35.25 9.35922 35.25 11.6667C35.25 14.7609 34.0121 17.7283 31.8085 19.9162C29.605 22.1042 26.6163 23.3333 23.5 23.3333C21.1761 23.3333 18.9043 22.6491 16.972 21.3671C15.0398 20.0852 13.5337 18.2631 12.6444 16.1313C11.7551 13.9995 11.5224 11.6537 11.9758 9.39062C12.4292 7.12751 13.5482 5.04871 15.1915 3.41709C16.8348 1.78548 18.9284 0.674338 21.2077 0.224177C23.487 -0.225984 25.8495 0.00505505 27.9965 0.888077C30.1436 1.7711 31.9787 3.26645 33.2698 5.18502Z" fill="url(#paint1_linear_111_1252)"/>
<defs>
<linearGradient id="paint0_linear_111_1252" x1="23.5" y1="0" x2="23.5" y2="50" gradientUnits="userSpaceOnUse">
<stop stop-color="#0095FF"/>
<stop offset="1" stop-color="#004372"/>
</linearGradient>
<linearGradient id="paint1_linear_111_1252" x1="23.5" y1="0" x2="23.5" y2="50" gradientUnits="userSpaceOnUse">
<stop stop-color="#0095FF"/>
<stop offset="1" stop-color="#004372"/>
</linearGradient>
</defs>
</svg>
